<?xml version="1.0" ?><svg data-name="Layer 6" id="Layer_6" viewBox="0 0 100 100" xmlns="http://www.w3.org/2000/svg"><title/><path d="M88.06,76,60,62.81v-7l-5.79-5.71L57,18a6.94,6.94,0,1,0-13.87.09L45.81,50,40,55.76v7.05L11.87,76a6.92,6.92,0,0,0,3.51,12.9,7.09,7.09,0,0,0,3.55-1l26.6-18.46.39.54h8.15l.39-.55L81.12,88.08a6.83,6.83,0,0,0,3.46.89,7,7,0,0,0,3.48-13ZM50,13.08a4.92,4.92,0,0,1,4.93,4.84L52.13,50H47.89l-2.8-32A4.93,4.93,0,0,1,50,13.08ZM17.87,86.23a4.92,4.92,0,0,1-5-8.49l28-13.08,3.19,3.19ZM46.75,68,42,63.09v-6.5L46.75,52h6.5L58,56.59v6.5L53.25,68Zm42.1,16.47a4.95,4.95,0,0,1-6.65,1.84L55.9,67.85l3.19-3.19,28,13.08A4.93,4.93,0,0,1,88.85,84.47ZM50,54.74a5.13,5.13,0,1,0,5.13,5.13A5.14,5.14,0,0,0,50,54.74ZM50,63a3.13,3.13,0,1,1,3.13-3.13A3.14,3.14,0,0,1,50,63Z"/></svg>